<svg xmlns="http://www.w3.org/2000/svg" viewBox="0 0 32 32" width="32" height="32">
  <style>
    .left-lobe { fill: #00F0FF; transition: fill 0.3s; }
    .right-lobe { fill: #6FFFE9; transition: fill 0.3s; }
    .stem { fill: #A5A1FF; transition: fill 0.3s; }
    @media (prefers-color-scheme: light) {
      .left-lobe { fill: #0F766E; }
      .right-lobe { fill: #0D9488; }
      .stem { fill: #0369A1; }
    }
  </style>
  <!-- Left Lobe -->
  <path class="left-lobe" d="M15 5C11.5 5 8.5 7.5 8 11C7.2 11.5 6.5 12.5 6.5 14C6.5 15.5 7.5 16.5 8 17C7.5 18 7.5 19.5 8.5 21C9.5 22.5 11 23 13 23C13.5 23 14 22.8 14.5 22.5C14.8 23.5 15 24.5 15 25C15 25.5 15.5 26 16 26S16 25.5 16 25V5H15Z" />
  <!-- Right Lobe -->
  <path class="right-lobe" d="M17 5V25C17 25.5 17.5 26 18 26S19 25.5 19 25C19 24.5 19.2 23.5 19.5 22.5C20 22.8 20.5 23 21 23C23 23 24.5 22.5 25.5 21C26.5 19.5 26.5 18 26 17C26.5 16.5 27.5 15.5 27.5 14C27.5 12.5 26.8 11.5 26 11C25.5 7.5 22.5 5 19 5H17Z" />
  <!-- Stem -->
  <rect class="stem" x="14.5" y="23" width="3" height="4" rx="1.5" />
</svg>